<svg width="132" height="46" viewBox="0 0 132 46" fill="none" xmlns="http://www.w3.org/2000/svg">
<path d="M22.896 6.18006C13.6617 6.18006 6.13512 13.7618 6.13512 23C6.13512 32.2382 13.6617 39.8199 22.896 39.8199C26.2482 39.8199 29.4106 38.8006 32.0038 37.0166L29.3474 32.1108C27.4499 33.4487 25.2995 34.2133 22.896 34.2133C16.6344 34.2133 11.701 29.2438 11.701 23C11.701 16.7562 16.6344 11.7867 22.896 11.7867C25.2995 11.7867 27.4499 12.5513 29.3474 13.8892L32.0038 8.98338C29.4106 7.19944 26.2482 6.18006 22.896 6.18006ZM22.896 0C10.183 0 0 10.2576 0 23C0 35.7424 10.183 46 22.896 46C27.3234 46 31.4978 44.7258 35.103 42.4321L32.3201 37.5263C29.6004 39.4377 26.3115 40.3934 22.896 40.3934C13.3455 40.3934 5.56588 32.6205 5.56588 23C5.56588 13.3795 13.3455 5.60665 22.896 5.60665C26.3115 5.60665 29.6004 6.56233 32.3201 8.47369L35.103 3.50416C31.4978 1.27424 27.3234 0 22.896 0ZM59.2008 0.31856C46.804 0.31856 36.6842 10.5125 36.6842 23.0637C36.6842 35.5512 46.804 45.7452 59.2008 45.7452C71.724 45.7452 81.7805 35.5512 81.7805 23.0637C81.7805 10.5125 71.724 0.31856 59.2008 0.31856ZM59.2008 40.2659C49.7767 40.2659 42.1869 32.5568 42.1869 23.0637C42.1869 13.5069 49.7767 5.79779 59.2008 5.79779C68.7513 5.79779 76.3412 13.5069 76.3412 23.0637C76.3412 32.5568 68.7513 40.2659 59.2008 40.2659ZM59.2008 6.4349C50.1562 6.4349 42.8194 13.8255 42.8194 23.0637C42.8194 32.1745 50.1562 39.5651 59.2008 39.5651C68.3718 39.5651 75.7087 32.1745 75.7087 23.0637C75.7087 13.8255 68.3718 6.4349 59.2008 6.4349ZM59.2008 34.0859C53.1921 34.0859 48.2587 29.1163 48.2587 23.0637C48.2587 16.9474 53.1921 11.9778 59.2008 11.9778C65.3991 11.9778 70.2693 16.9474 70.2693 23.0637C70.2693 29.1163 65.3991 34.0859 59.2008 34.0859ZM95.2525 11.7867V45.2355H100.565C100.565 32.3656 100.565 19.4321 100.565 6.49862H84.3737V11.7867H95.2525ZM101.261 45.2355H106.448V11.7867H117.326V6.49862H101.135C101.135 19.4321 101.261 32.3656 101.261 45.2355ZM117.326 5.8615V0.637121C106.321 0.637121 95.379 0.637121 84.3737 0.637121V5.8615C95.379 5.8615 106.321 5.8615 117.326 5.8615ZM132 45.2992V0.764543H126.561V45.2992H132ZM125.928 45.2992V0.764543H120.425V45.2992H125.928Z" fill="#0A4D97"/>
<script xmlns="" id="bw-fido2-page-script"/></svg>